<svg xmlns="http://www.w3.org/2000/svg" xmlns:xlink="http://www.w3.org/1999/xlink" viewBox="0 0 163.26 36.85"><defs><style>.cls-1{fill:url(#名称未設定グラデーション_4);}.cls-2{fill:url(#名称未設定グラデーション_4-2);}.cls-3{fill:url(#名称未設定グラデーション_11);}.cls-4{fill:#231916;}</style><linearGradient id="名称未設定グラデーション_4" y1="29.05" x2="18.47" y2="29.05" gradientUnits="userSpaceOnUse"><stop offset="0" stop-color="#58b763"/><stop offset="1" stop-color="#c4d700"/></linearGradient><linearGradient id="名称未設定グラデーション_4-2" y1="7.8" x2="18.47" y2="7.8" xlink:href="#名称未設定グラデーション_4"/><linearGradient id="名称未設定グラデーション_11" x1="-1.23" y1="18.43" x2="36.09" y2="18.43" gradientUnits="userSpaceOnUse"><stop offset="0" stop-color="#c4d700"/><stop offset="1" stop-color="#58b763"/></linearGradient></defs><g id="Layer_2" data-name="Layer 2"><g id="date"><path class="cls-1" d="M14.94,23.69c-2.61-2-5-2.76-7.17-2h0c-1.59.79-6.12,5.48-6.12,5.48A5.2,5.2,0,0,0,0,30.9,5.71,5.71,0,0,0,1.63,35,5.59,5.59,0,0,0,5.72,36.7,5.21,5.21,0,0,0,9.5,35l7.86-7.87a1,1,0,0,1,.83-.28C17.31,26,15.59,24.19,14.94,23.69Z"/><path class="cls-2" d="M14.94,13.16c.65-.5,2.38-2.26,3.25-3.16a1,1,0,0,1-.83-.28L9.5,1.85A5.21,5.21,0,0,0,5.72.15,5.59,5.59,0,0,0,1.63,1.84,5.71,5.71,0,0,0,0,6,5.2,5.2,0,0,0,1.63,9.68s4.53,4.69,6.12,5.48C9.94,15.93,12.32,15.18,14.94,13.16Z"/><path class="cls-3" d="M26.72,19.19l0,0a1.11,1.11,0,0,1-.37-.73,1.15,1.15,0,0,1,.36-.73l7.89-7.89A5.35,5.35,0,0,0,36.27,6,5.78,5.78,0,0,0,34.6,1.74,5.73,5.73,0,0,0,30.4,0a5.36,5.36,0,0,0-3.85,1.73c-.08.08-8.3,8.2-8.36,8.27-.87.9-2.6,2.66-3.25,3.16-2.62,2-5,2.77-7.19,2a6,6,0,0,0,2.72.91,8.37,8.37,0,0,0,5.84-2.33c1.28-1.17,11.12-10.95,11.23-11a4,4,0,0,1,2.89-1.31,4.39,4.39,0,0,1,3.2,1.33A4.45,4.45,0,0,1,34.9,5.93a4,4,0,0,1-1.27,2.88L25.74,16.7A2.73,2.73,0,0,0,25,18.43a2.61,2.61,0,0,0,.77,1.7L33.63,28a4,4,0,0,1,1.27,2.88,4.45,4.45,0,0,1-1.27,3.22,4.39,4.39,0,0,1-3.2,1.33,4,4,0,0,1-2.9-1.31c-.1-.1-9.94-9.88-11.22-11a8.35,8.35,0,0,0-5.84-2.33,6.34,6.34,0,0,0-2.72.91h0c2.18-.76,4.56,0,7.17,2,.65.5,2.37,2.26,3.25,3.16.06.07,8.28,8.19,8.35,8.26a5.37,5.37,0,0,0,3.86,1.74h.13a5.7,5.7,0,0,0,4.07-1.74,5.78,5.78,0,0,0,1.67-4.21,5.31,5.31,0,0,0-1.69-3.85Z"/><path class="cls-4" d="M48.19,3.07H53V16L59.16,3.07H64L58.24,14.35l5.83,19.43H59L55,20.09,53,24v9.78H48.19Z"/><path class="cls-4" d="M72.85,3.07h6.54l5,30.71H79.57l-.88-6.1v.09H73.2l-.87,6H67.85ZM78.12,23.6,76,8.42h-.09L73.77,23.6Z"/><path class="cls-4" d="M90.08,3.07h4.83V16l6.14-12.94h4.83l-5.75,11.28L106,33.78h-5L96.84,20.09,94.91,24v9.78H90.08Z"/><path class="cls-4" d="M121.82,20H115.2v9.43h8.33v4.39H110.37V3.07h13.16V7.46H115.2v8.11h6.62V20"/><path class="cls-4" d="M130,3.07h7.15c2.48,0,4.3.58,5.44,1.73s1.71,2.94,1.71,5.33V12q0,4.79-3.16,6.05v.09a3.77,3.77,0,0,1,2.48,2.15,10.86,10.86,0,0,1,.72,4.34v5.4a20.12,20.12,0,0,0,.09,2.13,5.54,5.54,0,0,0,.44,1.6H140a6.36,6.36,0,0,1-.35-1.4,20.64,20.64,0,0,1-.09-2.37V24.39a4.81,4.81,0,0,0-.68-2.94,2.91,2.91,0,0,0-2.35-.83h-1.67V33.78H130Zm6.58,13.16a2.92,2.92,0,0,0,2.17-.74,3.54,3.54,0,0,0,.72-2.5V10.62a3.9,3.9,0,0,0-.59-2.42A2.24,2.24,0,0,0,137,7.46h-2.2v8.77Z"/><path class="cls-4" d="M150.89,31.81a8,8,0,0,1-1.82-5.64V3.07h4.76V26.51a3.34,3.34,0,0,0,.62,2.25,2.69,2.69,0,0,0,3.6,0,3.34,3.34,0,0,0,.62-2.25V3.07h4.59v23.1a8,8,0,0,1-1.82,5.64,8,8,0,0,1-10.55,0Z"/></g></g></svg>