<?xml version="1.0" standalone="no"?>
<!DOCTYPE svg PUBLIC "-//W3C//DTD SVG 20010904//EN"
 "http://www.w3.org/TR/2001/REC-SVG-20010904/DTD/svg10.dtd">
<svg version="1.0" xmlns="http://www.w3.org/2000/svg"
 width="512.000000pt" height="512.000000pt" viewBox="0 0 512.000000 512.000000"
 preserveAspectRatio="xMidYMid meet">
<metadata>
Created by potrace 1.14, written by Peter Selinger 2001-2017
</metadata>
<g transform="translate(0.000000,512.000000) scale(0.100000,-0.100000)"
fill="#000000" stroke="none">
<path d="M4150 5110 c-19 -4 -45 -11 -57 -14 -13 -3 -32 -8 -42 -10 -10 -3
-33 -12 -50 -20 -17 -9 -31 -14 -31 -11 0 8 -100 -55 -150 -94 -25 -19 -184
-174 -355 -342 -266 -264 -407 -403 -836 -825 -64 -63 -67 -65 -104 -58 -46 8
20 -54 -665 628 -311 309 -583 576 -605 592 -72 56 -179 104 -282 128 -74 17
-255 15 -323 -3 -277 -74 -485 -266 -571 -526 -28 -87 -34 -129 -34 -255 1
-110 16 -211 38 -237 5 -7 7 -13 3 -13 -11 0 74 -153 112 -199 75 -93 481
-487 672 -653 118 -103 236 -188 260 -188 6 0 10 -4 10 -8 0 -18 190 -93 271
-108 62 -11 205 -6 294 10 197 36 397 131 549 260 82 70 388 370 1448 1419
255 253 296 284 418 324 57 18 212 25 270 11 148 -35 274 -113 362 -222 92
-115 132 -230 131 -381 0 -115 -4 -143 -29 -205 -45 -113 -78 -150 -681 -754
-396 -396 -608 -615 -622 -643 -20 -39 -53 -158 -46 -165 2 -2 5 -17 8 -33 2
-17 15 -55 27 -85 21 -49 92 -124 626 -660 600 -603 649 -657 687 -760 31 -82
40 -224 22 -325 -19 -107 -106 -260 -190 -334 -41 -36 -140 -101 -159 -106 -6
-1 -18 -5 -26 -8 -97 -40 -255 -57 -336 -36 -45 12 -147 50 -154 58 -3 3 -18
13 -35 21 -16 8 -221 205 -455 437 -983 975 -1190 1176 -1342 1298 -33 27
-174 104 -228 125 -158 62 -242 80 -400 85 -123 4 -153 0 -252 -37 -15 -6 -30
-10 -32 -9 -3 0 -50 -22 -103 -50 -88 -45 -161 -94 -232 -154 -25 -21 -29 -25
-127 -110 -211 -184 -610 -586 -653 -658 -33 -57 -79 -160 -87 -200 -3 -12 -9
-42 -14 -67 -20 -98 -3 -285 36 -400 3 -8 5 -16 5 -17 -1 -8 76 -144 98 -175
57 -78 184 -198 209 -198 6 0 12 -4 14 -8 5 -12 125 -69 183 -87 86 -26 146
-33 255 -31 87 3 121 9 198 35 167 56 183 70 827 714 342 342 604 595 622 603
18 8 40 14 50 14 10 0 172 -152 370 -347 193 -192 477 -472 631 -625 154 -152
290 -279 301 -283 12 -3 21 -10 21 -14 0 -10 150 -81 186 -87 15 -3 31 -7 36
-10 18 -12 59 -16 173 -20 101 -2 134 1 209 20 85 23 215 81 256 115 10 9 28
23 39 32 117 90 199 202 265 362 8 20 12 37 9 37 -3 0 0 7 7 15 7 8 10 15 8
15 -3 0 0 25 8 55 17 74 16 239 -2 317 -29 126 -93 254 -164 330 -17 18 -289
292 -605 608 -316 316 -579 588 -584 603 -15 38 -14 69 3 101 7 14 277 290
599 613 323 324 602 608 620 633 37 49 100 160 90 160 -3 0 -1 6 4 13 6 6 19
44 29 82 20 73 26 282 11 353 -20 91 -76 221 -129 301 -37 56 -194 211 -214
211 -8 0 -14 4 -14 8 0 14 -143 80 -220 102 -81 23 -276 35 -340 20z"/>
</g>
</svg>
